<svg xmlns="http://www.w3.org/2000/svg" width="277.961" height="25" viewBox="0 0 277.961 25"><defs><style>.a{fill:#fff;}.b{fill:none;stroke:#fff;}</style></defs><path class="a" d="M15.062,28.223c2.022,0,3.257-1.052,3.257-2.394,0-2.047-2.216-2.607-5.219-4.185s-4.539-3.737-4.539-6.292c0-3.672,2.943-6.292,7.873-6.292a15.237,15.237,0,0,1,5.378,1.026v3.637a10.56,10.56,0,0,0-4.461-1.469c-1.721,0-2.814.96-2.814,2.107,0,1.79,2.276,2.429,5.976,4.471a6.271,6.271,0,0,1,3.605,5.879c0,4.054-3.321,6.866-8.441,6.866a19.7,19.7,0,0,1-6.341-1.152l-1.106-4.6C10.712,27.363,12.863,28.223,15.062,28.223Z" transform="translate(-8.23 -9.06)"/><path class="a" d="M54.031,31.306c0,.194-.034.387-.034.551,0,2.775,1.807,4.388,4.732,4.388A13.637,13.637,0,0,0,64.12,34.6L62.959,38.34a17.463,17.463,0,0,1-5.735,1.1c-5.774,0-9.164-3.257-9.164-8.1a8.034,8.034,0,0,1,8.389-8.26c4.3,0,7.486,3.033,7.486,7.809v.43Zm2.259-5.227c-1.261,0-2.065.839-2.13,2.388h4.126C58.286,26.887,57.581,26.079,56.29,26.079Z" transform="translate(-30.924 -16.825)"/><path class="a" d="M88.157,36.412V26.861a3.533,3.533,0,0,0-1.1-2.9h1.484a31.332,31.332,0,0,0,5.163-.357l.129,1.583a6.112,6.112,0,0,1,3.971-1.549c3.386,0,5.593,2.151,5.593,5.679v7.1a3.467,3.467,0,0,0,1.1,2.87H96.624a3.467,3.467,0,0,0,1.1-2.87V31.473c0-3.012-.387-4.582-2.031-4.582-1.721,0-1.841,1.583-1.841,4.582v4.939a3.467,3.467,0,0,0,1.1,2.87H87.06A3.48,3.48,0,0,0,88.157,36.412Z" transform="translate(-53.146 -17.121)"/><path class="a" d="M135.08,31.306c0,.194-.034.387-.034.551,0,2.775,1.807,4.388,4.732,4.388a13.641,13.641,0,0,0,5.386-1.648L144,38.34a17.42,17.42,0,0,1-5.743,1.1c-5.774,0-9.159-3.257-9.159-8.1a8.033,8.033,0,0,1,8.385-8.26c4.3,0,7.486,3.033,7.486,7.809v.43Zm2.259-5.227c-1.261,0-2.065.839-2.13,2.388h4.13c-.013-1.579-.723-2.388-2.013-2.388Z" transform="translate(-76.601 -16.825)"/><path class="a" d="M183.745,38.414a12.235,12.235,0,0,1-5.064,1.063c-5.391,0-8.811-3.442-8.811-7.968,0-4.81,3.648-8.359,9.357-8.359a25.933,25.933,0,0,1,3.605.366v3.829a7.294,7.294,0,0,0-3.162-1.033c-2.13,0-3.515,1.613-3.515,4.423,0,3.321,1.643,5.356,4.354,5.356a9.183,9.183,0,0,0,4.388-1.355Z" transform="translate(-99.665 -16.865)"/><path class="a" d="M210.781,34.506c0,1.127.8,1.9,2.224,1.9h.262l-1.359,2.874c-.9.065-1.514.095-1.9.095-3.192,0-5.356-2.065-5.356-4.806,0-2.388,1.519-3.906,4.487-4.616,2.839-.675,4.677-.611,4.677-2.151,0-.968-.68-1.484-2.031-1.484a11.117,11.117,0,0,0-4.1.9l1.519-3.442a12.855,12.855,0,0,1,3.61-.581c2.517,0,4.3.516,5.485,1.721,1.355,1.385,1.39,3.128,1.39,5.356v3.872c0,1.678.581,2.151,2.418,2.418l-1.226,2.71c-.86.065-1.42.1-1.807.1-3.1,0-5.292-1.906-5.292-4.775V31.89C211.783,32.635,210.781,33.216,210.781,34.506Z" transform="translate(-119.332 -16.893)"/><line class="b" y2="21.889" transform="translate(107.414 3.111)"/><path class="a" d="M272.81,38.766V23.17h1.4v15.6Z" transform="translate(-157.95 -16.876)"/><path class="a" d="M285.3,23.32h1.592l8.561,13.66h.043V23.32h1.4V38.851h-1.764l-8.389-13.423H286.7V38.851h-1.4Z" transform="translate(-164.976 -16.962)"/><path class="a" d="M322.762,24.611H317.75V23.32h11.358v1.291h-4.926l-.021,14.24h-1.377Z" transform="translate(-183.335 -16.962)"/><path class="a" d="M349.88,38.851V23.32h9.228v1.291h-7.83V30.2h7.529v1.291h-7.529V37.56h8.153v1.291Z" transform="translate(-201.521 -16.962)"/><path class="a" d="M380.411,38.851H379V23.32h5.077a6.37,6.37,0,0,1,3.657.817,3.629,3.629,0,0,1-1.4,6.582v.043c1.979.323,2.409,1.656,2.6,3.463.28,2.517.194,3.678.817,4.625h-1.613a12.5,12.5,0,0,1-.538-3.227c-.323-3.549-.538-4.173-3.356-4.173h-3.872Zm3.012-8.69c1.979,0,4.431-.129,4.431-2.775,0-3.012-2.8-2.775-4.281-2.775h-3.141v5.55Z" transform="translate(-217.989 -16.962)"/><path class="a" d="M411.409,23.32H413l8.553,13.66h.043V23.32h1.4V38.851h-1.764l-8.389-13.423H412.8V38.851h-1.4Z" transform="translate(-236.314 -16.962)"/><path class="a" d="M443.76,38.851l6.152-15.531h1.635l6.2,15.531h-1.527l-1.656-4.195h-7.722L445.2,38.851Zm10.3-5.485-3.356-8.755-3.442,8.755Z" transform="translate(-254.605 -16.962)"/><path class="a" d="M478.582,24.611H473.57V23.32h11.371v1.291H480v14.24h-1.377Z" transform="translate(-271.487 -16.962)"/><path class="a" d="M505.81,38.766V23.17h1.4v15.6Z" transform="translate(-289.799 -16.876)"/><path class="a" d="M523.827,38.746c-4.453,0-6.927-3.248-6.927-8.088s2.474-8.088,6.927-8.088,6.927,3.248,6.927,8.088S528.3,38.746,523.827,38.746Zm0-1.291c3.872,0,5.421-3.4,5.421-6.8s-1.549-6.8-5.421-6.8-5.421,3.4-5.421,6.8S519.955,37.456,523.827,37.456Z" transform="translate(-295.98 -16.534)"/><path class="a" d="M556.73,23.32h1.592l8.562,13.66h.043V23.32h1.4V38.851h-1.764l-8.389-13.423h-.034V38.851h-1.4Z" transform="translate(-318.268 -16.962)"/><path class="a" d="M589.07,38.851l6.152-15.531h1.635l6.2,15.531h-1.536l-1.656-4.195h-7.714l-1.635,4.195Zm10.3-5.485-3.356-8.755-3.442,8.755Z" transform="translate(-336.695 -16.962)"/><path class="a" d="M627.13,38.851V23.32h1.4V37.56h7.809v1.291Z" transform="translate(-358.38 -16.962)"/></svg>