<svg xmlns="http://www.w3.org/2000/svg" width="262.762" height="23.633" viewBox="0 0 262.762 23.633"><defs><style>.a{fill:#fff;}.b{fill:none;stroke:#fff;}</style></defs><g transform="translate(0 -0.001)"><path class="a" d="M14.747,27.157c1.929,0,3.106-.993,3.106-2.261,0-1.933-2.113-2.462-4.978-3.952S8.546,17.415,8.546,15c0-3.468,2.807-5.942,7.51-5.942a14.662,14.662,0,0,1,5.13.968v3.435a10.144,10.144,0,0,0-4.256-1.387c-1.641,0-2.684.907-2.684,1.99,0,1.691,2.171,2.294,5.7,4.223a5.916,5.916,0,0,1,3.439,5.552c0,3.829-3.168,6.484-8.051,6.484a18.959,18.959,0,0,1-6.049-1.087L8.23,24.9A12.557,12.557,0,0,0,14.747,27.157Z" transform="translate(-8.23 -9.06)"/><path class="a" d="M53.756,30.926c0,.185-.033.369-.033.525,0,2.647,1.724,4.186,4.514,4.186a13.008,13.008,0,0,0,5.142-1.572l-1.108,3.57a16.657,16.657,0,0,1-5.47,1.046c-5.507,0-8.741-3.106-8.741-7.723a7.663,7.663,0,0,1,8-7.879c4.1,0,7.14,2.893,7.14,7.448v.41ZM55.91,25.94c-1.2,0-1.97.8-2.031,2.278h3.935C57.814,26.712,57.141,25.94,55.91,25.94Z" transform="translate(-31.715 -17.327)"/><path class="a" d="M88.106,35.821v-9.11a3.37,3.37,0,0,0-1.046-2.77h1.416A29.887,29.887,0,0,0,93.4,23.6l.123,1.51a5.83,5.83,0,0,1,3.788-1.477c3.23,0,5.335,2.052,5.335,5.417v6.771a3.307,3.307,0,0,0,1.046,2.737h-7.51a3.307,3.307,0,0,0,1.046-2.737V31.11c0-2.873-.369-4.37-1.937-4.37-1.641,0-1.756,1.51-1.756,4.37v4.711a3.307,3.307,0,0,0,1.046,2.737H87.06A3.32,3.32,0,0,0,88.106,35.821Z" transform="translate(-54.711 -17.633)"/><path class="a" d="M134.8,30.926c0,.185-.033.369-.033.525,0,2.647,1.724,4.186,4.514,4.186a13.011,13.011,0,0,0,5.138-1.572l-1.108,3.57a16.616,16.616,0,0,1-5.478,1.046c-5.507,0-8.737-3.106-8.737-7.723a7.662,7.662,0,0,1,8-7.879c4.1,0,7.14,2.893,7.14,7.448v.41Zm2.154-4.986c-1.2,0-1.97.8-2.031,2.278h3.94c-.012-1.506-.689-2.278-1.921-2.278Z" transform="translate(-79.499 -17.327)"/><path class="a" d="M183.1,37.71a11.671,11.671,0,0,1-4.83,1.014c-5.142,0-8.4-3.283-8.4-7.6,0-4.588,3.48-7.973,8.925-7.973a24.737,24.737,0,0,1,3.439.349v3.652a6.958,6.958,0,0,0-3.016-.985c-2.031,0-3.353,1.539-3.353,4.219,0,3.168,1.568,5.109,4.153,5.109A8.76,8.76,0,0,0,184.2,34.2Z" transform="translate(-103.538 -17.368)"/><path class="a" d="M210.5,33.984c0,1.075.767,1.814,2.122,1.814h.25l-1.3,2.741c-.858.062-1.444.09-1.814.09-3.045,0-5.109-1.97-5.109-4.584,0-2.278,1.449-3.726,4.28-4.4,2.708-.644,4.461-.583,4.461-2.052,0-.923-.648-1.416-1.937-1.416a10.6,10.6,0,0,0-3.911.862l1.449-3.283a12.262,12.262,0,0,1,3.443-.554c2.4,0,4.1.492,5.232,1.641,1.293,1.321,1.325,2.983,1.325,5.109v3.693c0,1.6.554,2.052,2.306,2.306l-1.17,2.585c-.821.062-1.354.094-1.724.094-2.955,0-5.048-1.818-5.048-4.555V31.489C211.454,32.2,210.5,32.753,210.5,33.984Z" transform="translate(-124.046 -17.397)"/><line class="b" y2="20.666" transform="translate(101.541 2.967)"/><path class="a" d="M272.81,38.046V23.17h1.334V38.046Z" transform="translate(-164.235 -17.38)"/><path class="a" d="M285.3,23.32h1.518l8.166,13.029h.041V23.32h1.334V38.134h-1.682l-8-12.8h-.041v12.8H285.3Z" transform="translate(-171.6 -17.468)"/><path class="a" d="M322.531,24.551H317.75V23.32h10.834v1.231h-4.7l-.021,13.583h-1.313Z" transform="translate(-190.733 -17.468)"/><path class="a" d="M349.88,38.134V23.32h8.8v1.231h-7.469v5.335H358.4v1.231h-7.181V36.9h7.776v1.231Z" transform="translate(-209.678 -17.468)"/><path class="a" d="M380.346,38.134H379V23.32h4.842a6.076,6.076,0,0,1,3.488.78A3.462,3.462,0,0,1,386,30.378v.041c1.888.308,2.3,1.58,2.483,3.3.267,2.4.185,3.509.78,4.411H387.72a11.928,11.928,0,0,1-.513-3.078c-.308-3.386-.513-3.981-3.2-3.981h-3.693Zm2.873-8.289c1.888,0,4.227-.123,4.227-2.647,0-2.873-2.667-2.647-4.083-2.647h-3v5.294Z" transform="translate(-226.848 -17.468)"/><path class="a" d="M411.408,23.32h1.518l8.158,13.029h.041V23.32h1.334V38.134h-1.682l-8-12.8h-.041v12.8H411.4Z" transform="translate(-245.952 -17.468)"/><path class="a" d="M443.76,38.134l5.868-14.814h1.559L457.1,38.134H455.64l-1.58-4h-7.366l-1.559,4Zm9.828-5.232-3.2-8.351L447.1,32.9Z" transform="translate(-265.033 -17.468)"/><path class="a" d="M478.351,24.551H473.57V23.32h10.846v1.231H479.7V38.134h-1.313Z" transform="translate(-282.61 -17.468)"/><path class="a" d="M505.81,38.046V23.17h1.334V38.046Z" transform="translate(-301.619 -17.38)"/><path class="a" d="M523.507,38c-4.247,0-6.607-3.1-6.607-7.715s2.36-7.715,6.607-7.715,6.607,3.1,6.607,7.715S527.771,38,523.507,38Zm0-1.231c3.693,0,5.171-3.242,5.171-6.484S527.2,23.8,523.507,23.8s-5.171,3.242-5.171,6.484S519.814,36.769,523.507,36.769Z" transform="translate(-308.159 -17.026)"/><path class="a" d="M556.73,23.32h1.518l8.166,13.029h.041V23.32h1.334V38.134h-1.682l-8-12.8h-.033v12.8h-1.334Z" transform="translate(-331.644 -17.468)"/><path class="a" d="M589.07,38.134l5.868-14.814H596.5l5.909,14.814h-1.465l-1.58-4H592l-1.559,4Zm9.82-5.232-3.2-8.351L592.406,32.9Z" transform="translate(-350.712 -17.468)"/><path class="a" d="M627.13,38.134V23.32h1.338V36.9h7.448v1.231Z" transform="translate(-373.154 -17.468)"/></g></svg>